<?xml version="1.0" encoding="UTF-8" standalone="no"?>
<svg
   xmlns:svg="http://www.w3.org/2000/svg"
   xmlns="http://www.w3.org/2000/svg"
   id="svg2486"
   version="1.1"
   viewBox="0 0 600 285"
   height="380"
   width="800">
  <g
     transform="matrix(1.4290962,0,0,1.4290962,4.0006918,-35.983001)"
     id="g4520">
    <path
       id="path2500"
       d="m 93.398956,40.59978 c 14.729494,-2.82374 29.734694,4.78945 38.898434,16.08983 11.2752,13.42906 16.36232,31.0518 17.24366,48.32918 0.44296,12.92505 -2.04779,25.86481 -6.75321,37.88368 -7.27585,17.56566 -17.83165,34.24682 -32.89299,46.13654 -2.41189,-1.38191 -4.78364,-2.82819 -7.12096,-4.32898 5.64394,-4.98288 11.45321,-9.87384 16.01282,-15.92149 11.95516,-15.56272 20.77463,-34.08617 22.53252,-53.81045 C 142.49373,97.45104 138.78726,79.04091 128.3533,64.64072 121.99464,55.75435 112.17238,48.7609 101.02997,48.00464 90.549683,47.59017 80.888657,53.52508 74.191208,61.2027 64.790009,72.18238 60.239487,86.52448 58.841461,100.7286 c -2.734649,0.82432 -5.422912,1.79368 -8.068176,2.86898 C 51.333511,89.5772 55.149872,75.54554 62.517639,63.55344 69.463486,52.43917 80.259369,43.1159 93.398956,40.59978 Z"
       style="fill:#000000;fill-rule:nonzero;stroke:none" />
    <path
       id="path2504"
       d="m 52.3367,107.3398 c 16.144867,-7.21931 34.128846,-8.83236 51.61717,-8.43416 11.25527,0.0851 22.69428,0.88147 33.45687,4.39786 0.26127,2.76502 0.36412,5.5419 0.26286,8.31946 -12.1268,-3.98149 -24.98503,-4.93825 -37.67389,-4.85078 -13.249618,0.11827 -26.712936,1.2111 -39.242264,5.82312 -17.959045,6.45588 -34.325775,18.88564 -43.222686,36.01526 -3.943284,8.18234 -6.575364,17.72076 -3.871506,26.69993 2.633011,11.52973 12.746475,19.96456 23.771072,23.16627 16.697281,5.36689 34.82312,1.61474 50.537888,-5.15519 2.286407,1.90039 4.697326,3.64264 7.119629,5.36692 C 81.767426,205.36503 66.934555,209.38046 51.963547,208.9837 40.064087,208.54984 27.869003,205.04556 18.58876,197.35749 8.736877,189.49793 3.54187,176.47581 4.789047,163.98617 5.909424,151.40187 12.171539,139.792 20.289902,130.32028 29.107971,120.43087 40.128952,112.50525 52.3367,107.3398 Z"
       style="fill:#000000;fill-rule:nonzero;stroke:none" />
    <path
       id="path2508"
       d="m 153.62851,109.87577 c 12.34204,6.03442 23.07669,15.2798 31.06384,26.4437 6.11896,9.07265 10.70839,19.58648 10.94617,30.67312 0.31021,12.19123 -5.03078,24.40819 -14.60777,32.0615 -11.63631,9.36135 -27.33725,12.75369 -42.00449,11.13122 -15.29015,-1.2547 -30.03156,-6.97835 -42.713668,-15.50953 -15.421982,-10.32111 -26.773133,-25.72197 -34.647477,-42.34339 -4.994247,-9.82933 -8.393264,-20.44868 -10.194534,-31.31798 2.454468,-1.34163 5.000778,-2.50426 7.587402,-3.56627 2.042511,15.68578 8.368943,30.49097 16.650544,43.85892 9.775207,16.03943 24.631973,29.12305 42.272663,35.79912 11.99003,4.64861 25.20788,6.67661 37.966,4.58821 10.83162,-2.03313 21.69331,-7.59572 27.37501,-17.40445 4.9854,-8.68341 5.57909,-19.50679 2.16509,-28.85867 -5.50911,-15.87531 -17.89813,-28.74034 -32.43022,-36.7945 0.045,-2.92792 0.32817,-5.84578 0.57144,-8.761 z"
       style="fill:#000000;fill-rule:nonzero;stroke:none" />
  </g>
  <g
     transform="matrix(1.4290962,0,0,1.4290962,309.95534,0.15835257)"
     id="g4515">
    <path
       id="path2500-3"
       d="m 106.85867,15.599747 c -14.729491,-2.823746 -29.734691,4.789444 -38.898431,16.089828 -11.2752,13.429062 -16.36232,31.051804 -17.24366,48.329178 -0.44296,12.925049 2.04779,25.864807 6.75321,37.883677 7.27585,17.56566 17.83165,34.24682 32.89299,46.13654 2.41189,-1.38191 4.78364,-2.82819 7.12096,-4.32898 -5.64394,-4.98288 -11.45321,-9.87384 -16.01282,-15.92149 -11.95516,-15.56272 -20.77463,-34.08617 -22.53252,-53.810442 -1.1745,-17.527054 2.53197,-35.93718 12.96593,-50.337372 6.35866,-8.886368 16.18092,-15.879822 27.32333,-16.636078 10.480291,-0.414474 20.141311,5.520432 26.838761,13.198059 9.4012,10.979676 13.95172,25.321778 15.34975,39.525894 2.73465,0.824326 5.42291,1.793686 8.06817,2.868988 C 148.92412,64.577164 145.10776,50.545502 137.73999,38.553406 130.79414,27.439133 119.99826,18.11586 106.85867,15.599747 Z"
       style="fill:#000000;fill-rule:nonzero;stroke:none" />
    <path
       id="path2504-9"
       d="m 147.92093,82.339767 c -16.14487,-7.219314 -34.12885,-8.832366 -51.617171,-8.434158 -11.25527,0.08513 -22.69428,0.88147 -33.45687,4.397858 -0.26127,2.765014 -0.36412,5.5419 -0.26286,8.319458 12.1268,-3.981491 24.98503,-4.938248 37.673891,-4.850784 13.24962,0.11827 26.71294,1.211105 39.24226,5.82312 17.95905,6.455886 34.32578,18.885639 43.22269,36.015259 3.94328,8.18234 6.57536,17.72076 3.87151,26.69993 -2.63302,11.52973 -12.74648,19.96456 -23.77108,23.16627 -16.69728,5.36689 -34.82312,1.61474 -50.53788,-5.15519 -2.28641,1.90039 -4.69733,3.64264 -7.11963,5.36692 13.32441,6.67654 28.15728,10.69197 43.12829,10.29521 11.89946,-0.43386 24.09455,-3.93814 33.37479,-11.62621 9.85188,-7.85956 15.04689,-20.88168 13.79971,-33.37132 -1.12037,-12.5843 -7.38249,-24.19417 -15.50085,-33.66589 -8.81807,-9.889408 -19.83905,-17.815021 -32.0468,-22.980473 z"
       style="fill:#000000;fill-rule:nonzero;stroke:none" />
    <path
       id="path2508-4"
       d="m 46.629119,84.875732 c -12.34204,6.034424 -23.07669,15.279798 -31.06384,26.443698 -6.1189599,9.07265 -10.7083899,19.58648 -10.9461699,30.67312 -0.31021,12.19123 5.03078,24.40819 14.6077699,32.0615 11.63631,9.36135 27.33725,12.75369 42.00449,11.13122 15.29015,-1.2547 30.03156,-6.97835 42.713671,-15.50953 15.42198,-10.32111 26.77313,-25.72197 34.64747,-42.34339 4.99425,-9.82933 8.39327,-20.44868 10.19454,-31.317976 -2.45447,-1.341629 -5.00078,-2.504257 -7.5874,-3.566269 -2.04251,15.685775 -8.36895,30.490965 -16.65055,43.858915 -9.7752,16.03943 -24.631971,29.12305 -42.272661,35.79912 -11.99003,4.64861 -25.20788,6.67661 -37.966,4.58821 -10.83162,-2.03313 -21.69331,-7.59572 -27.37501,-17.40445 -4.9854,-8.68341 -5.57909,-19.50679 -2.16509,-28.85867 5.50911,-15.87531 17.89813,-28.74034 32.43022,-36.794496 -0.04504,-2.927917 -0.32817,-5.845779 -0.57144,-8.761002 z"
       style="fill:#000000;fill-rule:nonzero;stroke:none" />
  </g>
</svg>